<svg width="162" height="29" viewBox="0 0 162 29" fill="none" xmlns="http://www.w3.org/2000/svg">
<path d="M14.0035 5.76666C14.0035 5.76666 14.0368 5.76666 14.0035 5.76666L14.0368 0.0333252C7.83682 0.0333252 2.63682 3.83333 0.736816 9.69999L6.17015 11.4667C7.23682 8.13333 10.3368 5.76666 14.0035 5.76666Z" fill="white"/>
<path d="M21.9035 11.4667L27.3369 9.66667C25.4369 3.8 20.2035 0 14.0369 0V5.73333C17.7035 5.76667 20.8035 8.13333 21.9035 11.4667Z" fill="white"/>
<path d="M27.3368 9.66669L21.8702 11.4334C22.1368 12.2334 22.2702 13.1 22.2702 14C22.2702 16.7334 20.9368 19.1667 18.8702 20.6667L22.2368 25.3C27.2702 21.7 29.2702 15.5667 27.3368 9.66669Z" fill="white"/>
<path d="M19.8369 12.6333C19.5369 12.6333 19.2702 12.4333 19.1702 12.1667C18.4369 9.9 16.4035 8.4 14.0035 8.4C13.6369 8.4 13.3035 8.1 13.3035 7.7C13.3035 7.3 13.6035 7 14.0035 7C17.0035 7 19.5702 8.83333 20.4702 11.7C20.6035 12.0667 20.4035 12.4667 20.0369 12.5667C19.9702 12.6333 19.9035 12.6333 19.8369 12.6333Z" fill="white"/>
<path d="M4.43684 24.1667L7.83684 19.4667C6.53684 18 5.77017 16.1 5.77017 14C5.77017 13.1 5.90351 12.2334 6.17017 11.4334L0.703506 9.66669C-0.996494 14.9667 0.436839 20.5 4.43684 24.1667Z" fill="white"/>
<path d="M18.9035 20.7C17.5368 21.7 15.8702 22.3 14.0368 22.3C12.8702 22.3 11.7702 22.0667 10.7702 21.6333L7.37018 26.3C12.1035 28.9 17.7702 28.6 22.2702 25.3333L18.9035 20.7Z" fill="white"/>
<path d="M132.504 15.1C132.337 15.1 132.204 15 132.17 14.8667C131.804 13.7 130.737 12.9333 129.504 12.9333C129.304 12.9333 129.137 12.7667 129.137 12.5667C129.137 12.3667 129.304 12.2 129.504 12.2C131.037 12.2 132.37 13.1667 132.837 14.6333C132.904 14.8333 132.804 15.0333 132.604 15.0667C132.57 15.1 132.537 15.1 132.504 15.1Z" fill="white"/>
<path d="M35.6702 18.0667C35.5702 16.3667 34.9035 12.5333 34.6035 8.19999C34.6035 8.16665 34.6035 8.06665 34.5369 8.06665C34.0369 8.06665 33.6702 8.56665 33.0035 8.56665C32.3369 8.56665 31.8369 8.13332 31.8369 7.43332C31.8369 5.66665 39.2035 4.29999 40.8369 4.29999C41.5035 4.29999 42.0369 4.83332 42.0369 5.46665C42.0369 6.79999 40.6702 6.73332 39.7369 6.93332L39.5369 6.99999V7.33332C39.5369 9.09999 42.5035 21.9 39.8035 21.9C38.4035 21.9667 35.6702 22.1 35.6702 18.0667Z" fill="white"/>
<path d="M42.7702 9.06665C44.2035 9.06665 45.0369 12.0667 45.1035 12.6333C45.4369 12.4 45.6035 12.1 45.9035 11.8666C46.6369 11.2 47.4369 10.6667 48.3369 10.2333C49.7035 9.56665 52.9369 9.99998 52.9369 12C52.9369 12.9 52.2702 13.5333 51.3702 13.5333C50.9702 13.5333 50.6369 13.2666 50.2035 13.2666C48.7702 13.2666 46.9035 15.0666 46.1369 16.2666C46.7702 18.9333 47.0702 19.6 47.0702 20.2333C47.0702 21.1333 46.3369 22.5 45.3035 22.5C42.8369 22.5 43.1702 21.4333 42.0702 16.2C41.7369 14.6333 41.3369 13.1667 41.3369 11.4667C41.3369 10.9 41.3035 9.06665 42.7702 9.06665Z" fill="white"/>
<path d="M57.3702 20.9667C48.9702 20.9667 53.8702 6.09999 61.2035 8.89999C61.4368 8.93333 61.6702 9.13333 61.8702 9.13333C62.1702 9.13333 62.4702 8.76666 62.9368 8.76666C63.4368 8.76666 63.8702 9.09999 63.9702 9.59999C64.8702 12.9 65.1702 16.6333 65.1702 20.0667C65.1702 20.8667 64.5035 22.2333 63.4702 22.2333C62.4368 22.2333 61.4368 20.9667 61.4368 19.2333C60.3702 20.3667 58.9368 20.9667 57.3702 20.9667ZM57.4702 17.1333C58.0035 17.1333 61.3035 15.8333 61.3035 15.1C61.3035 14.2667 61.2368 13.1 61.2368 12.0333L61.1035 11.9667C58.7035 11.9667 56.7035 13.7667 56.7035 16.4C56.7368 16.9667 56.9035 17.1333 57.4702 17.1333Z" fill="white"/>
<path d="M67.8035 9.60004C69.4702 9.60004 69.3368 11.8 69.9368 12.9334L70.0368 12.8667C71.0368 11.6334 73.0702 10.8 74.7368 10.8C77.9035 10.8 79.6368 12.7 80.5702 15.5334C80.9368 17.3667 81.2035 21.0667 78.4368 21.0667C76.5702 21.0667 75.8702 18.7667 75.8702 16.9334C75.8702 16 75.7035 15.1334 74.6035 15.1334C72.5368 15.1334 71.5368 17.9667 71.2035 19.3C71.2035 20.7667 70.3702 21.7 69.0702 21.7C66.9368 21.7 66.8035 19.5667 66.2702 12.2334C66.2702 11.0667 66.3702 9.60004 67.8035 9.60004Z" fill="white"/>
<path d="M89.5035 17.8333C89.4369 15.8 83.4369 16.3 83.4369 12.9333C83.4369 11.4333 84.5702 8.19998 88.6702 8.39998C89.4702 8.46665 90.0369 9.53332 90.0369 10.0666C90.0369 10.5 89.8702 11.2333 89.2702 11.2333C87.8035 11.2333 86.6369 12.4667 86.6369 12.6333C86.6369 14.3667 92.6035 12.5666 92.6702 17.9667C92.7369 23.5333 87.9702 23.2333 85.8702 22.8C84.3035 22.4667 81.6369 20.8 81.9035 18.8333C82.7369 13.1 89.5702 21.5666 89.5035 17.8333Z" fill="white"/>
<path d="M93.8035 13.7333C93.8035 12.4 93.9369 9.03333 96.0702 9.03333C98.3702 9.03333 98.4702 12.6333 98.5368 14.4C98.5368 16.4333 98.7368 18.3 98.1035 20.1C97.7702 20.9 97.5035 21.4667 96.5035 21.4667C93.3035 21.4667 93.8035 16.4333 93.8035 13.7333ZM96.0369 4C96.9368 4 97.6368 4.66667 97.6368 5.53333C97.6368 6.36667 96.9368 7.06667 96.0369 7.06667C95.1369 7.06667 94.4369 6.4 94.4369 5.53333C94.4369 4.7 95.1702 4 96.0369 4Z" fill="white"/>
<path d="M107.27 17.8333C107.204 15.8 101.204 16.3 101.204 12.9333C101.204 11.4333 102.337 8.19998 106.437 8.39998C107.237 8.46665 107.804 9.53332 107.804 10.0666C107.804 10.5 107.637 11.2333 107.037 11.2333C105.57 11.2333 104.404 12.4667 104.404 12.6333C104.404 14.3667 110.37 12.5666 110.437 17.9667C110.504 23.5333 105.737 23.2333 103.637 22.8C102.07 22.4667 99.4035 20.8 99.6702 18.8333C100.504 13.1 107.337 21.5666 107.27 17.8333Z" fill="white"/>
<path d="M118.504 9.26668C120.17 9.53335 121.57 11.0333 121.337 12.4333C121.204 13.1333 120.637 13.6333 119.904 13.4333C117.27 12.7 115.637 12.8667 115.67 16.6667C115.67 20.7 121.17 17.6333 121.337 19.7C121.67 24.0333 110.07 23.3 111.47 15.4667C112.004 12.5 114.737 8.63335 118.504 9.26668Z" fill="white"/>
<path d="M138.004 11.9333C138.004 11.1333 137.804 9.3 139.137 9C139.17 8.96667 139.57 8.93334 139.57 8.9C140.97 7.5 142.67 6.73334 144.637 6.73334C146.404 6.73334 147.837 7.56667 148.57 9.23334C149.937 12.5333 147.337 19.2333 142.537 18.1C142.537 19.4667 142.737 19.5333 142.737 20.9333C142.737 21.6667 142.704 23.8667 140.904 23.8667C139.07 23.8667 138.637 21.1667 138.504 19.8333C138.337 16.8333 138.004 15 138.004 11.9333ZM142.137 14.6333C146.637 15.1333 147.104 9.4 145.137 9.4C144.47 9.4 141.904 9.83334 141.404 11.2333C141.637 11.5333 141.937 13.9 142.137 14.6333Z" fill="white"/>
<path d="M150.27 11.6666C150.903 9.99996 153.437 6.39996 156.437 6.39996C158.77 6.39996 160.304 8.09996 159.87 10.6333C159.337 14.1666 156.37 15.2666 152.97 14.6666C152.903 14.6333 152.87 14.7 152.87 14.7333C152.87 16.8666 154.27 18.4333 156.504 18.4333C157.537 18.4333 158.437 17.7333 159.47 17.7333C160.637 17.7333 161.57 18.6333 161.57 19.8C161.57 21.4666 159.07 23.6 157.27 23.6C153.403 23.6 149.404 20.4 149.404 16.2333C149.404 14.6666 149.703 13.1666 150.27 11.6666ZM157.537 9.69996C157.537 9.19996 157.47 9.2333 157.237 9.09996C155.237 9.1333 153.904 10.6333 153.237 12.4333C155.17 13.3666 157.537 11.9333 157.537 9.69996Z" fill="white"/>
<path d="M136.404 13.5666C135.404 10.5333 132.737 8.56665 129.537 8.56665C126.337 8.56665 123.67 10.5333 122.67 13.5666C121.67 16.6 122.704 19.7666 125.304 21.6333C127.87 23.5 131.204 23.5 133.77 21.6333C136.37 19.7666 137.404 16.6 136.404 13.5666ZM129.537 20.1C127.17 20.1 125.27 18.2 125.27 15.8333C125.27 13.4666 127.17 11.5666 129.537 11.5666C131.904 11.5666 133.804 13.4666 133.804 15.8333C133.804 18.2 131.904 20.1 129.537 20.1Z" fill="white"/>
</svg>
